# xmcd
#
# Track frame offsets:
#	150
#	22516
#	43453
#	74204
#	95350
#	118350
#	142724
#	165948
#	188500
#	203925
#	226242
#	245762
#	263119
#	285800
#	300948
#
# Disc length: 4313
#
# Revision: 1
# Processed by: cddbd v1.5.1PL0 Copyright (c) Steve Scherf et al.
# Submitted via: EasyCDDAExtractor 4.6.0.1
# Normalized: r0:DSETVAR1,TDELIM( - )
#
DISCID=c410d70f
DTITLE=Various Artist - Los Tres Gandes de la Salsa
DYEAR=2000
DGENRE=Salsa
TTITLE0=Todo Empezo - Eddie Santiago
TTITLE1=Casi Un Hechizo - Jerry Rivera
TTITLE2=Gitana - Willie Colon
TTITLE3=Tu me Haces Falta - Eddie Santiago
TTITLE4=Cuenta Conmigo - Jerry Rivera
TTITLE5=Asia - Willie Colon
TTITLE6=Que Locura Enamorarme de Ti - Eddie Santiago
TTITLE7=Que Hay de Malo - Jerry Rivera
TTITLE8=Te Estan Buscando - Willie Colon
TTITLE9=Lluvia - Eddie Santiago
TTITLE10=Amores Como El Nuestro - Jerry Rivera
TTITLE11=Volo - Willie Colon
TTITLE12=Tu Me Quemas - Eddie Santiago
TTITLE13=Si Quieres Amar - Jerry Rivera
TTITLE14=Mia - Eddie Santiago
EXTD=
EXTT0=
EXTT1=
EXTT2=
EXTT3=
EXTT4=
EXTT5=
EXTT6=
EXTT7=
EXTT8=
EXTT9=
EXTT10=
EXTT11=
EXTT12=
EXTT13=
EXTT14=
PLAYORDER=
